<mxfile host="app.diagrams.net" modified="2022-10-15T03:41:48.426Z" agent="5.0 (Windows NT 10.0; Win64; x64) AppleWebKit/537.36 (KHTML, like Gecko) Chrome/106.0.0.0 Safari/537.36" etag="hoHR6dtlm_e_OUrSycTv" version="20.4.0" type="github">
  <diagram id="HRCQzhakg8QF5JEV10Wz" name="PÃ¡gina-1">
    <mxGraphModel dx="981" dy="1695" grid="1" gridSize="10" guides="1" tooltips="1" connect="1" arrows="1" fold="1" page="1" pageScale="1" pageWidth="827" pageHeight="1169" math="0" shadow="0">
      <root>
        <mxCell id="0" />
        <mxCell id="1" parent="0" />
        <mxCell id="9wV4JpstpWKQLf34MO4_-1" value="" style="rounded=0;whiteSpace=wrap;html=1;" vertex="1" parent="1">
          <mxGeometry x="30" y="20" width="770" height="60" as="geometry" />
        </mxCell>
        <mxCell id="9wV4JpstpWKQLf34MO4_-2" value="nav" style="text;html=1;strokeColor=none;fillColor=none;align=center;verticalAlign=middle;whiteSpace=wrap;rounded=0;" vertex="1" parent="1">
          <mxGeometry x="30" y="90" width="60" height="30" as="geometry" />
        </mxCell>
        <mxCell id="9wV4JpstpWKQLf34MO4_-3" value="" style="verticalLabelPosition=bottom;shadow=0;dashed=0;align=center;html=1;verticalAlign=top;strokeWidth=1;shape=mxgraph.mockup.graphics.simpleIcon;strokeColor=#999999;" vertex="1" parent="1">
          <mxGeometry x="40" y="25" width="50" height="50" as="geometry" />
        </mxCell>
        <mxCell id="9wV4JpstpWKQLf34MO4_-4" value="img" style="text;html=1;strokeColor=none;fillColor=none;align=center;verticalAlign=middle;whiteSpace=wrap;rounded=0;" vertex="1" parent="1">
          <mxGeometry x="35" y="35" width="60" height="30" as="geometry" />
        </mxCell>
        <mxCell id="9wV4JpstpWKQLf34MO4_-5" value="" style="verticalLabelPosition=bottom;verticalAlign=top;html=1;shape=mxgraph.basic.rect;fillColor2=none;strokeWidth=1;size=20;indent=5;" vertex="1" parent="1">
          <mxGeometry x="420" y="30" width="370" height="40" as="geometry" />
        </mxCell>
        <mxCell id="9wV4JpstpWKQLf34MO4_-8" value="" style="verticalLabelPosition=bottom;verticalAlign=top;html=1;shape=mxgraph.basic.rect;fillColor2=none;strokeWidth=1;size=20;indent=5;" vertex="1" parent="1">
          <mxGeometry x="430" y="35" width="60" height="30" as="geometry" />
        </mxCell>
        <mxCell id="9wV4JpstpWKQLf34MO4_-9" value="" style="verticalLabelPosition=bottom;verticalAlign=top;html=1;shape=mxgraph.basic.rect;fillColor2=none;strokeWidth=1;size=20;indent=5;" vertex="1" parent="1">
          <mxGeometry x="500" y="35" width="60" height="30" as="geometry" />
        </mxCell>
        <mxCell id="9wV4JpstpWKQLf34MO4_-10" value="" style="verticalLabelPosition=bottom;verticalAlign=top;html=1;shape=mxgraph.basic.rect;fillColor2=none;strokeWidth=1;size=20;indent=5;" vertex="1" parent="1">
          <mxGeometry x="570" y="35" width="60" height="30" as="geometry" />
        </mxCell>
        <mxCell id="9wV4JpstpWKQLf34MO4_-11" value="" style="verticalLabelPosition=bottom;verticalAlign=top;html=1;shape=mxgraph.basic.rect;fillColor2=none;strokeWidth=1;size=20;indent=5;" vertex="1" parent="1">
          <mxGeometry x="640" y="35" width="60" height="30" as="geometry" />
        </mxCell>
        <mxCell id="9wV4JpstpWKQLf34MO4_-12" value="" style="verticalLabelPosition=bottom;verticalAlign=top;html=1;shape=mxgraph.basic.rect;fillColor2=none;strokeWidth=1;size=20;indent=5;" vertex="1" parent="1">
          <mxGeometry x="710" y="35" width="60" height="30" as="geometry" />
        </mxCell>
        <mxCell id="9wV4JpstpWKQLf34MO4_-13" value="ul" style="text;html=1;strokeColor=none;fillColor=none;align=center;verticalAlign=middle;whiteSpace=wrap;rounded=0;" vertex="1" parent="1">
          <mxGeometry x="450" y="-30" width="60" height="30" as="geometry" />
        </mxCell>
        <mxCell id="9wV4JpstpWKQLf34MO4_-14" value="li &amp;gt; a" style="text;html=1;strokeColor=none;fillColor=none;align=center;verticalAlign=middle;whiteSpace=wrap;rounded=0;" vertex="1" parent="1">
          <mxGeometry x="430" y="35" width="60" height="30" as="geometry" />
        </mxCell>
      </root>
    </mxGraphModel>
  </diagram>
</mxfile>